<?xml version="1.0" standalone="no"?>
<!DOCTYPE svg PUBLIC "-//W3C//DTD SVG 20010904//EN"
 "http://www.w3.org/TR/2001/REC-SVG-20010904/DTD/svg10.dtd">
<svg version="1.0" xmlns="http://www.w3.org/2000/svg"
 width="203.000000pt" height="203.000000pt" viewBox="0 0 203.000000 203.000000"
 preserveAspectRatio="xMidYMid meet">
<metadata>
Created by potrace 1.11, written by Peter Selinger 2001-2013
</metadata>
<g transform="translate(0.000000,203.000000) scale(0.100000,-0.100000)"
fill="#000000" stroke="none">
<path d="M481 1640 c-178 -49 -333 -174 -410 -332 -55 -111 -71 -188 -67 -313
7 -171 68 -310 191 -430 132 -129 281 -187 470 -181 169 5 303 64 425 186 90
91 152 200 176 311 15 70 15 198 0 267 -29 136 -82 230 -189 335 -79 77 -191
137 -296 161 -86 19 -221 17 -300 -4z"/>
</g>
</svg>
